<?xml version="1.0" encoding="UTF-8" standalone="no"?>
<!-- Created with Inkscape (http://www.inkscape.org/) -->

<svg
   xmlns:dc="http://purl.org/dc/elements/1.1/"
   xmlns:cc="http://creativecommons.org/ns#"
   xmlns:rdf="http://www.w3.org/1999/02/22-rdf-syntax-ns#"
   xmlns:svg="http://www.w3.org/2000/svg"
   xmlns="http://www.w3.org/2000/svg"
   xmlns:sodipodi="http://sodipodi.sourceforge.net/DTD/sodipodi-0.dtd"
   xmlns:inkscape="http://www.inkscape.org/namespaces/inkscape"
   width="3000"
   height="3000"
   id="svg2"
   version="1.1"
   inkscape:version="0.48.0 r9654"
   sodipodi:docname="box-draft.svg">
  <defs
     id="defs4" />
  <sodipodi:namedview
     id="base"
     pagecolor="#ffffff"
     bordercolor="#666666"
     borderopacity="1.0"
     inkscape:pageopacity="0.0"
     inkscape:pageshadow="2"
     inkscape:zoom="0.175"
     inkscape:cx="1362.0725"
     inkscape:cy="1535.3741"
     inkscape:document-units="px"
     inkscape:current-layer="layer1"
     showgrid="false"
     inkscape:window-width="1280"
     inkscape:window-height="752"
     inkscape:window-x="0"
     inkscape:window-y="0"
     inkscape:window-maximized="1" />
  <metadata
     id="metadata7">
    <rdf:RDF>
      <cc:Work
         rdf:about="">
        <dc:format>image/svg+xml</dc:format>
        <dc:type
           rdf:resource="http://purl.org/dc/dcmitype/StillImage" />
        <dc:title />
      </cc:Work>
    </rdf:RDF>
  </metadata>
  <g
     inkscape:label="Layer 1"
     inkscape:groupmode="layer"
     id="layer1"
     transform="translate(0,1947.6378)">
    <rect
       style="fill:#00ff00"
       id="rect2985"
       width="281.42856"
       height="40"
       x="380"
       y="678.07654"
       class="platform" />
    <rect
       style="fill:#00ff00"
       id="rect3020"
       width="311.42856"
       height="40"
       x="1291.4286"
       y="715.21948"
       class="platform" />
    <rect
       style="fill:#00ff00"
       id="rect3022"
       width="314.28574"
       height="40"
       x="2082.8572"
       y="703.79083"
       class="platform" />
    <rect
       style="fill:#00ff00"
       id="rect3024"
       width="282.85715"
       height="40"
       x="677.14288"
       y="303.79065"
       class="platform" />
    <rect
       style="fill:#00ff00"
       id="rect3026"
       width="322.85715"
       height="40"
       x="1600"
       y="306.64786"
       class="platform" />
    <rect
       style="fill:#00ff00"
       id="rect3028"
       width="351.42856"
       height="40"
       x="1120.0001"
       y="-56.209118"
       class="platform" />
    <rect
       style="fill:#00ff00"
       id="rect3036"
       width="565.71429"
       height="40"
       x="5.4495678e-07"
       y="-79.06636"
       class="platform" />
    <rect
       style="fill:#00ff00"
       id="rect3038"
       width="502.85718"
       height="40"
       x="2497.1431"
       y="-141.92357"
       class="platform" />
    <rect
       style="fill:#00ff00"
       id="rect3040"
       width="822.85718"
       height="40"
       x="542.85712"
       y="-479.06641"
       class="platform" />
    <rect
       style="fill:#00ff00"
       id="rect3042"
       width="782.85718"
       height="40"
       x="1697.1427"
       y="-427.63785"
       class="platform" />
    <rect
       style="fill:#00ff00"
       id="rect3046"
       width="234.28572"
       height="40"
       x="1131.4286"
       y="-884.78058"
       class="platform" />
    <rect
       style="fill:#00ff00"
       id="rect3048"
       width="245.71428"
       height="40"
       x="2165.7144"
       y="-799.06628"
       class="platform" />
    <rect
       style="fill:#00ff00"
       id="rect3050"
       width="280.00003"
       height="40"
       x="377.14285"
       y="-924.78064"
       class="platform" />
    <rect
       style="fill:#00ff00"
       id="rect3052"
       width="331.42856"
       height="40"
       x="2388.5713"
       y="-1176.2091"
       class="platform" />
    <rect
       style="fill:#00ff00"
       id="rect3054"
       width="274.28571"
       height="40"
       x="777.14282"
       y="-1244.7806"
       class="platform" />
    <rect
       style="fill:#00ff00"
       id="rect3077"
       width="268.57141"
       height="40"
       x="1908.5714"
       y="-1519.0663"
       class="platform" />
    <rect
       style="fill:#00ff00"
       id="rect3079"
       width="274.28574"
       height="40"
       x="1177.1429"
       y="-1524.7805"
       class="platform" />
    <path
       sodipodi:type="arc"
       style="fill:#ff0000"
       id="path3299"
       sodipodi:cx="960"
       sodipodi:cy="645.71429"
       sodipodi:rx="45.714287"
       sodipodi:ry="40"
       d="m 1005.7143,645.71429 a 45.714287,40 0 1 1 -91.42859,0 45.714287,40 0 1 1 91.42859,0 z"
       transform="translate(0,-1947.6378)"
       cooldown="1000"
       obj_id="12"
       class="powerup" />
    <path
       sodipodi:type="arc"
       style="fill:#ff0000"
       id="path3301"
       sodipodi:cx="1277.1428"
       sodipodi:cy="1022.8571"
       sodipodi:rx="48.57143"
       sodipodi:ry="40"
       d="m 1325.7143,1022.8571 a 48.57143,40 0 1 1 -97.1429,0 48.57143,40 0 1 1 97.1429,0 z"
       transform="translate(1022.8571,-1861.9235)"
       cooldown="1000"
       class="powerup"
       obj_id="12" />
    <path
       sodipodi:type="arc"
       style="fill:#ff0000"
       id="path3305"
       sodipodi:cx="2954.2856"
       sodipodi:cy="1754.2858"
       sodipodi:rx="45.714287"
       sodipodi:ry="40"
       d="m 2999.9999,1754.2858 a 45.714287,40 0 1 1 -91.4285,0 45.714287,40 0 1 1 91.4285,0 z"
       transform="translate(0,-1947.6378)"
       obj_id="12"
       cooldown="12000"
       class="powerup" />
    <path
       sodipodi:type="arc"
       style="fill:#ff0000"
       id="path3307"
       sodipodi:cx="54.285713"
       sodipodi:cy="1811.4286"
       sodipodi:rx="42.857143"
       sodipodi:ry="40"
       d="m 97.142857,1811.4286 a 42.857143,40 0 1 1 -85.714287,0 42.857143,40 0 1 1 85.714287,0 z"
       transform="translate(0,-1947.6378)"
       cooldown="3000"
       class="powerup"
       obj_id="12" />
    <path
       sodipodi:type="arc"
       style="fill:#ff0000"
       id="path3309"
       sodipodi:cx="528.57141"
       sodipodi:cy="2574.2856"
       sodipodi:rx="54.285713"
       sodipodi:ry="31.428572"
       d="m 582.85712,2574.2856 a 54.285713,31.428572 0 1 1 -108.57142,0 54.285713,31.428572 0 1 1 108.57142,0 z"
       transform="translate(0,-1947.6378)"
       cooldown="13000"
       obj_id="13"
       class="powerup" />
    <path
       sodipodi:type="arc"
       style="fill:#ff0000"
       id="path3311"
       sodipodi:cx="1465.7142"
       sodipodi:cy="2625.7144"
       sodipodi:rx="42.857143"
       sodipodi:ry="31.428572"
       d="m 1508.5714,2625.7144 a 42.857143,31.428572 0 1 1 -85.7143,0 42.857143,31.428572 0 1 1 85.7143,0 z"
       transform="translate(0,-1947.6378)"
       cooldown="13000"
       class="powerup"
       obj_id="13" />
    <path
       sodipodi:type="arc"
       style="fill:#ff0000"
       id="path3313"
       sodipodi:cx="2231.4285"
       sodipodi:cy="2582.8572"
       sodipodi:rx="71.428574"
       sodipodi:ry="45.714287"
       d="m 2302.857,2582.8572 a 71.428574,45.714287 0 1 1 -142.8571,0 71.428574,45.714287 0 1 1 142.8571,0 z"
       transform="translate(0,-1947.6378)"
       cooldown="13000"
       obj_id="13"
       class="powerup" />
    <rect
       style="fill:#ff0000"
       id="rect3315"
       width="177.14285"
       height="245.71428"
       x="108.57143"
       y="2748.5715"
       transform="translate(0,-1947.6378)"
       class="spawnpoint" />
    <rect
       style="fill:#ff0000"
       id="rect3317"
       width="194.28572"
       height="251.42857"
       x="971.42859"
       y="2742.8572"
       transform="translate(0,-1947.6378)"
       class="spawnpoint" />
    <rect
       style="fill:#ff0000"
       id="rect3319"
       width="165.71428"
       height="234.28572"
       x="2668.5715"
       y="2765.7144"
       transform="translate(0,-1947.6378)"
       class="spawnpoint" />
  </g>
</svg>
