<?xml version="1.0" encoding="UTF-8" standalone="no"?>
<!-- Created with Inkscape (http://www.inkscape.org/) -->

<svg
   xmlns:dc="http://purl.org/dc/elements/1.1/"
   xmlns:cc="http://creativecommons.org/ns#"
   xmlns:rdf="http://www.w3.org/1999/02/22-rdf-syntax-ns#"
   xmlns:svg="http://www.w3.org/2000/svg"
   xmlns="http://www.w3.org/2000/svg"
   xmlns:sodipodi="http://sodipodi.sourceforge.net/DTD/sodipodi-0.dtd"
   xmlns:inkscape="http://www.inkscape.org/namespaces/inkscape"
   width="3000"
   height="3000"
   id="svg2"
   version="1.1"
   inkscape:version="0.48.0 r9654"
   sodipodi:docname="box-draft.svg">
  <defs
     id="defs4" />
  <sodipodi:namedview
     id="base"
     pagecolor="#ffffff"
     bordercolor="#666666"
     borderopacity="1.0"
     inkscape:pageopacity="0.0"
     inkscape:pageshadow="2"
     inkscape:zoom="0.175"
     inkscape:cx="1362.0725"
     inkscape:cy="1535.3741"
     inkscape:document-units="px"
     inkscape:current-layer="layer1"
     showgrid="false"
     inkscape:window-width="1280"
     inkscape:window-height="752"
     inkscape:window-x="0"
     inkscape:window-y="0"
     inkscape:window-maximized="1" />
  <metadata
     id="metadata7">
    <rdf:RDF>
      <cc:Work
         rdf:about="">
        <dc:format>image/svg+xml</dc:format>
        <dc:type
           rdf:resource="http://purl.org/dc/dcmitype/StillImage" />
        <dc:title />
      </cc:Work>
    </rdf:RDF>
  </metadata>
  <g
     inkscape:label="Layer 1"
     inkscape:groupmode="layer"
     id="layer1"
     transform="translate(0,1947.6378)">
    <rect
       style="fill:#00ff00"
       id="rect2985"
       width="281.42856"
       height="40"
       x="380"
       y="678.07654"
       class="platform" />
    <rect
       style="fill:#00ff00"
       id="rect3020"
       width="311.42856"
       height="40"
       x="1291.4286"
       y="715.21948"
       class="platform" />
    <rect
       style="fill:#00ff00"
       id="rect3022"
       width="314.28574"
       height="40"
       x="2082.8572"
       y="703.79083"
       class="platform" />
    <rect
       style="fill:#00ff00"
       id="rect3024"
       width="282.85715"
       height="40"
       x="677.14288"
       y="303.79065"
       class="platform" />
    <rect
       style="fill:#00ff00"
       id="rect3026"
       width="322.85715"
       height="40"
       x="1600"
       y="306.64786"
       class="platform" />
    <rect
       style="fill:#00ff00"
       id="rect3028"
       width="351.42856"
       height="40"
       x="1120.0001"
       y="-56.209118"
       class="platform" />
    <rect
       style="fill:#00ff00"
       id="rect3036"
       width="565.71429"
       height="40"
       x="5.4495678e-07"
       y="-79.06636"
       class="platform" />
    <rect
       style="fill:#00ff00"
       id="rect3038"
       width="502.85718"
       height="40"
       x="2497.1431"
       y="-141.92357"
       class="platform" />
    <rect
       style="fill:#00ff00"
       id="rect3040"
       width="822.85718"
       height="40"
       x="542.85712"
       y="-479.06641"
       class="platform" />
    <rect
       style="fill:#00ff00"
       id="rect3042"
       width="782.85718"
       height="40"
       x="1697.1427"
       y="-427.63785"
       class="platform" />
    <rect
       style="fill:#00ff00"
       id="rect3046"
       width="234.28572"
       height="40"
       x="1131.4286"
       y="-884.78058"
       class="platform" />
    <rect
       style="fill:#00ff00"
       id="rect3048"
       width="245.71428"
       height="40"
       x="2165.7144"
       y="-799.06628"
       class="platform" />
    <rect
       style="fill:#00ff00"
       id="rect3050"
       width="280.00003"
       height="40"
       x="377.14285"
       y="-924.78064"
       class="platform" />
    <rect
       style="fill:#00ff00"
       id="rect3052"
       width="331.42856"
       height="40"
       x="2388.5713"
       y="-1176.2091"
       class="platform" />
    <rect
       style="fill:#00ff00"
       id="rect3054"
       width="274.28571"
       height="40"
       x="777.14282"
       y="-1244.7806"
       class="platform" />
    <rect
       style="fill:#00ff00"
       id="rect3077"
       width="268.57141"
       height="40"
       x="1908.5714"
       y="-1519.0663"
       class="platform" />
    <rect
       style="fill:#00ff00"
       id="rect3079"
       width="274.28574"
       height="40"
       x="1177.1429"
       y="-1524.7805"
       class="platform" />
    <path
       sodipodi:type="arc"
       style="fill:#000000"
       id="path3002"
       sodipodi:cx="300"
       sodipodi:cy="1622.8572"
       sodipodi:rx="162.85715"
       sodipodi:ry="131.42857"
       d="m 462.85715,1622.8572 c 0,72.586 -72.91363,131.4286 -162.85715,131.4286 -89.94352,0 -162.85715,-58.8426 -162.85715,-131.4286 0,-72.586 72.91363,-131.4286 162.85715,-131.4286 89.94352,0 162.85715,58.8426 162.85715,131.4286 z"
       transform="matrix(1.6118421,0,0,1.9972826,-203.90976,-3788.585)"
       class="grab" />
    <path
       sodipodi:type="arc"
       style="fill:#000000"
       id="path3004"
       sodipodi:cx="2780"
       sodipodi:cy="1371.4286"
       sodipodi:rx="145.71428"
       sodipodi:ry="125.71429"
       d="m 2925.7143,1371.4286 c 0,69.4301 -65.2385,125.7143 -145.7143,125.7143 -80.4758,0 -145.7143,-56.2842 -145.7143,-125.7143 0,-69.4301 65.2385,-125.7143 145.7143,-125.7143 80.4758,0 145.7143,56.2842 145.7143,125.7143 z"
       transform="matrix(1.8014707,0,0,2.0880682,-2282.7313,-3416.6313)"
       class="grab" />
    <path
       sodipodi:type="arc"
       style="fill:#000000"
       id="path3006"
       sodipodi:cx="1760"
       sodipodi:cy="1177.1428"
       sodipodi:rx="222.85715"
       sodipodi:ry="188.57143"
       d="m 1982.8571,1177.1428 c 0,104.1451 -99.7765,188.5714 -222.8571,188.5714 -123.0806,0 -222.8571,-84.4263 -222.8571,-188.5714 0,-104.1451 99.7765,-188.5714 222.8571,-188.5714 123.0806,0 222.8571,84.4263 222.8571,188.5714 z"
       transform="matrix(1.3461538,0,0,1.5909091,-514.94509,-2754.6509)"
       class="grab" />
    <path
       sodipodi:type="arc"
       style="fill:#000000"
       id="path3034"
       sodipodi:cx="391.42856"
       sodipodi:cy="634.28571"
       sodipodi:rx="242.85715"
       sodipodi:ry="222.85715"
       d="m 634.28571,634.28571 c 0,123.0806 -108.73085,222.85714 -242.85715,222.85714 -134.1263,0 -242.85715,-99.77654 -242.85715,-222.85714 0,-123.08061 108.73085,-222.85715 242.85715,-222.85715 134.1263,0 242.85715,99.77654 242.85715,222.85715 z"
       transform="matrix(1.2352941,0,0,1.3461538,-52.100833,-2215.7696)"
       class="grab" />
    <path
       sodipodi:type="arc"
       style="fill:#ff0000"
       id="path3299"
       sodipodi:cx="960"
       sodipodi:cy="645.71429"
       sodipodi:rx="45.714287"
       sodipodi:ry="40"
       d="m 1005.7143,645.71429 a 45.714287,40 0 1 1 -91.42859,0 45.714287,40 0 1 1 91.42859,0 z"
       transform="translate(0,-1947.6378)"
       objectid="12"
       cooldown="1000" />
    <path
       sodipodi:type="arc"
       style="fill:#ff0000"
       id="path3301"
       sodipodi:cx="1277.1428"
       sodipodi:cy="1022.8571"
       sodipodi:rx="48.57143"
       sodipodi:ry="40"
       d="m 1325.7143,1022.8571 a 48.57143,40 0 1 1 -97.1429,0 48.57143,40 0 1 1 97.1429,0 z"
       transform="translate(1022.8571,-1861.9235)"
       objectid="12"
       cooldown="1000" />
    <path
       sodipodi:type="arc"
       style="fill:#ff0000"
       id="path3305"
       sodipodi:cx="2954.2856"
       sodipodi:cy="1754.2858"
       sodipodi:rx="45.714287"
       sodipodi:ry="40"
       d="m 2999.9999,1754.2858 a 45.714287,40 0 1 1 -91.4285,0 45.714287,40 0 1 1 91.4285,0 z"
       transform="translate(0,-1947.6378)"
       objectid="12000" />
    <path
       sodipodi:type="arc"
       style="fill:#ff0000"
       id="path3307"
       sodipodi:cx="54.285713"
       sodipodi:cy="1811.4286"
       sodipodi:rx="42.857143"
       sodipodi:ry="40"
       d="m 97.142857,1811.4286 a 42.857143,40 0 1 1 -85.714287,0 42.857143,40 0 1 1 85.714287,0 z"
       transform="translate(0,-1947.6378)"
       objectid="12"
       cooldown="3000" />
    <path
       sodipodi:type="arc"
       style="fill:#ff0000"
       id="path3309"
       sodipodi:cx="528.57141"
       sodipodi:cy="2574.2856"
       sodipodi:rx="54.285713"
       sodipodi:ry="31.428572"
       d="m 582.85712,2574.2856 a 54.285713,31.428572 0 1 1 -108.57142,0 54.285713,31.428572 0 1 1 108.57142,0 z"
       transform="translate(0,-1947.6378)"
       objectid="13"
       cooldown="13000" />
    <path
       sodipodi:type="arc"
       style="fill:#ff0000"
       id="path3311"
       sodipodi:cx="1465.7142"
       sodipodi:cy="2625.7144"
       sodipodi:rx="42.857143"
       sodipodi:ry="31.428572"
       d="m 1508.5714,2625.7144 a 42.857143,31.428572 0 1 1 -85.7143,0 42.857143,31.428572 0 1 1 85.7143,0 z"
       transform="translate(0,-1947.6378)"
       objectid="13"
       cooldown="13000" />
    <path
       sodipodi:type="arc"
       style="fill:#ff0000"
       id="path3313"
       sodipodi:cx="2231.4285"
       sodipodi:cy="2582.8572"
       sodipodi:rx="71.428574"
       sodipodi:ry="45.714287"
       d="m 2302.857,2582.8572 a 71.428574,45.714287 0 1 1 -142.8571,0 71.428574,45.714287 0 1 1 142.8571,0 z"
       transform="translate(0,-1947.6378)"
       objectid="13"
       cooldown="13000" />
  </g>
</svg>
