<?xml version="1.0" encoding="UTF-8" standalone="no"?>
<!-- Created with Inkscape (http://www.inkscape.org/) -->

<svg
   xmlns:dc="http://purl.org/dc/elements/1.1/"
   xmlns:cc="http://creativecommons.org/ns#"
   xmlns:rdf="http://www.w3.org/1999/02/22-rdf-syntax-ns#"
   xmlns:svg="http://www.w3.org/2000/svg"
   xmlns="http://www.w3.org/2000/svg"
   xmlns:sodipodi="http://sodipodi.sourceforge.net/DTD/sodipodi-0.dtd"
   xmlns:inkscape="http://www.inkscape.org/namespaces/inkscape"
   width="3000"
   height="3000"
   id="svg3108"
   version="1.1"
   inkscape:version="0.48.0 r9654"
   sodipodi:docname="downdown.svg">
  <defs
     id="defs3110" />
  <sodipodi:namedview
     id="base"
     pagecolor="#ffffff"
     bordercolor="#666666"
     borderopacity="1.0"
     inkscape:pageopacity="0.0"
     inkscape:pageshadow="2"
     inkscape:zoom="0.125"
     inkscape:cx="795.68642"
     inkscape:cy="1451.8183"
     inkscape:document-units="px"
     inkscape:current-layer="layer1"
     showgrid="false"
     inkscape:window-width="1280"
     inkscape:window-height="752"
     inkscape:window-x="0"
     inkscape:window-y="0"
     inkscape:window-maximized="0" />
  <metadata
     id="metadata3113">
    <rdf:RDF>
      <cc:Work
         rdf:about="">
        <dc:format>image/svg+xml</dc:format>
        <dc:type
           rdf:resource="http://purl.org/dc/dcmitype/StillImage" />
        <dc:title></dc:title>
      </cc:Work>
    </rdf:RDF>
  </metadata>
  <g
     inkscape:label="Layer 1"
     inkscape:groupmode="layer"
     id="layer1"
     transform="translate(0,1947.6378)">
    <rect
       style="fill:#00ff00"
       id="rect3116"
       width="2285.7144"
       height="45.714287"
       x="-281.7066"
       y="-1665.5118"
       transform="matrix(0.98480775,0.17364818,-0.17364818,0.98480775,0,0)"
       class="platform" />
    <rect
       style="fill:#00ff00"
       id="rect3118"
       width="1793.0302"
       height="45.714287"
       x="486.58167"
       y="-719.59045"
       class="platform" />
    <path
       sodipodi:type="arc"
       style="fill:#00ff00"
       id="path3122"
       sodipodi:cx="2668.5715"
       sodipodi:cy="954.28571"
       sodipodi:rx="222.85715"
       sodipodi:ry="182.85715"
       d="m 2891.4287,954.28571 a 222.85715,182.85715 0 1 1 -445.7143,0 222.85715,182.85715 0 1 1 445.7143,0 z"
       transform="matrix(1.3461538,0,0,1.640625,-1038.9959,-2539.5011)"
       class="grab" />
    <rect
       style="fill:#00ff00"
       id="rect3143"
       width="45.714287"
       height="322.48169"
       x="2236.6934"
       y="-719.60651"
       class="platform" />
    <rect
       style="fill:#00ff00"
       id="rect3145"
       width="733.86188"
       height="40"
       x="2260.3594"
       y="-433.29379"
       class="platform" />
    <rect
       style="fill:#00ff00"
       id="rect3147"
       width="43.343914"
       height="465.94708"
       x="955.15302"
       y="-1481.8762"
       class="platform" />
    <rect
       style="fill:#00ff00"
       id="rect3149"
       width="387.30652"
       height="37.925926"
       x="960.57111"
       y="-1056.564"
       class="platform" />
    <rect
       style="fill:#00ff00"
       id="rect3151"
       width="1500.7831"
       height="59.597885"
       x="3.8310971"
       y="-255.27916"
       class="platform" />
    <path
       sodipodi:type="arc"
       style="fill:#00ff00"
       id="path3155"
       sodipodi:cx="1909.8019"
       sodipodi:cy="1856.4175"
       sodipodi:rx="178.14601"
       sodipodi:ry="189.6393"
       d="m 2087.9479,1856.4175 a 178.14601,189.6393 0 1 1 -356.292,0 178.14601,189.6393 0 1 1 356.292,0 z"
       transform="matrix(1.6840119,0,0,1.5819506,-1349.2104,-2968.3462)"
       class="grab" />
    <rect
       style="fill:#00ff00"
       id="rect3157"
       width="45.973164"
       height="835.49811"
       x="2390.6045"
       y="-16.832838"
       class="platform" />
    <rect
       style="fill:#00ff00"
       id="rect3159"
       width="1877.2375"
       height="45.973164"
       x="513.367"
       y="2344.8823"
       transform="translate(0,-1947.6378)"
       class="platform" />
    <rect
       style="fill:#00ff00"
       id="rect3161"
       width="1091.6943"
       height="64.458931"
       x="230.36676"
       y="597.12915"
       transform="matrix(0.9423818,0.33453929,-0.34962322,0.93689039,0,0)"
       class="platform" />
    <rect
       style="fill:#ff0000"
       id="rect3163"
       width="100"
       height="100"
       x="0"
       y="-1947.6378"
       class="spawnpoint" />
    <rect
       style="fill:#00ff00"
       id="rect3168"
       width="43.343914"
       height="379.25925"
       x="1029.418"
       y="-215.44737"
       class="platform" />
    <path
       sodipodi:type="arc"
       style="fill:#ff0000"
       id="path3263"
       sodipodi:cx="1171.6403"
       sodipodi:cy="857.18518"
       sodipodi:rx="39.280422"
       sodipodi:ry="29.798943"
       d="m 1210.9207,857.18518 a 39.280422,29.798943 0 1 1 -78.5609,0 39.280422,29.798943 0 1 1 78.5609,0 z"
       transform="translate(0,-1947.6378)"
       cooldown="3000"
       class="powerup"
       obj_id="12" />
    <path
       sodipodi:type="arc"
       style="fill:#ff0000"
       id="path3265"
       sodipodi:cx="2380"
       sodipodi:cy="1452"
       sodipodi:rx="44"
       sodipodi:ry="52"
       d="m 2424,1452 a 44,52 0 1 1 -88,0 44,52 0 1 1 88,0 z"
       transform="translate(0,-1947.6378)"
       cooldown="5000"
       obj_id="13"
       class="powerup" />
    <path
       sodipodi:type="arc"
       style="fill:#ff0000"
       id="path3267"
       sodipodi:cx="144"
       sodipodi:cy="1624"
       sodipodi:rx="40"
       sodipodi:ry="40"
       d="m 184,1624 a 40,40 0 1 1 -80,0 40,40 0 1 1 80,0 z"
       transform="translate(0,-1947.6378)"
       cooldown="11000"
       class="powerup"
       obj_id="11" />
    <path
       sodipodi:type="arc"
       style="fill:#ff0000"
       id="path3269"
       sodipodi:cx="1168"
       sodipodi:cy="1860"
       sodipodi:rx="56"
       sodipodi:ry="52"
       d="m 1224,1860 a 56,52 0 1 1 -112,0 56,52 0 1 1 112,0 z"
       transform="translate(0,-1947.6378)"
       cooldown="10000"
       class="powerup"
       obj_id="11" />
    <path
       sodipodi:type="arc"
       style="fill:#ff0000"
       id="path3271"
       sodipodi:cx="2700"
       sodipodi:cy="2220"
       sodipodi:rx="116"
       sodipodi:ry="84"
       d="m 2816,2220 a 116,84 0 1 1 -232,0 116,84 0 1 1 232,0 z"
       transform="translate(0,-1947.6378)"
       cooldown="5000"
       class="powerup"
       obj_id="12" />
    <rect
       style="fill:#ff0000"
       id="rect3321"
       width="120"
       height="184"
       x="256"
       y="104.00002"
       transform="translate(0,-1947.6378)"
       class="spawnpoint" />
    <rect
       style="fill:#ff0000"
       id="rect3323"
       width="104"
       height="104"
       x="456"
       y="8.0000172"
       transform="translate(0,-1947.6378)"
       class="spawnpoint" />
  </g>
</svg>
