<?xml version="1.0" encoding="UTF-8" standalone="no"?>
<!-- Created with Inkscape (http://www.inkscape.org/) -->

<svg
   xmlns:dc="http://purl.org/dc/elements/1.1/"
   xmlns:cc="http://creativecommons.org/ns#"
   xmlns:rdf="http://www.w3.org/1999/02/22-rdf-syntax-ns#"
   xmlns:svg="http://www.w3.org/2000/svg"
   xmlns="http://www.w3.org/2000/svg"
   xmlns:sodipodi="http://sodipodi.sourceforge.net/DTD/sodipodi-0.dtd"
   xmlns:inkscape="http://www.inkscape.org/namespaces/inkscape"
   width="3000"
   height="3000"
   id="svg3108"
   version="1.1"
   inkscape:version="0.48.0 r9654"
   sodipodi:docname="downdown.svg">
  <defs
     id="defs3110" />
  <sodipodi:namedview
     id="base"
     pagecolor="#ffffff"
     bordercolor="#666666"
     borderopacity="1.0"
     inkscape:pageopacity="0.0"
     inkscape:pageshadow="2"
     inkscape:zoom="0.125"
     inkscape:cx="795.68642"
     inkscape:cy="1451.8183"
     inkscape:document-units="px"
     inkscape:current-layer="layer1"
     showgrid="false"
     inkscape:window-width="1280"
     inkscape:window-height="752"
     inkscape:window-x="0"
     inkscape:window-y="0"
     inkscape:window-maximized="1" />
  <metadata
     id="metadata3113">
    <rdf:RDF>
      <cc:Work
         rdf:about="">
        <dc:format>image/svg+xml</dc:format>
        <dc:type
           rdf:resource="http://purl.org/dc/dcmitype/StillImage" />
        <dc:title />
      </cc:Work>
    </rdf:RDF>
  </metadata>
  <g
     inkscape:label="Layer 1"
     inkscape:groupmode="layer"
     id="layer1"
     transform="translate(0,1947.6378)">
    <rect
       style="fill:#00ff00"
       id="rect3116"
       width="2285.7144"
       height="45.714287"
       x="-281.7066"
       y="-1665.5118"
       transform="matrix(0.98480775,0.17364818,-0.17364818,0.98480775,0,0)"
       class="platform" />
    <rect
       style="fill:#00ff00"
       id="rect3118"
       width="1793.0302"
       height="45.714287"
       x="486.58167"
       y="-719.59045"
       class="platform" />
    <path
       sodipodi:type="arc"
       style="fill:#00ff00"
       id="path3122"
       sodipodi:cx="2668.5715"
       sodipodi:cy="954.28571"
       sodipodi:rx="222.85715"
       sodipodi:ry="182.85715"
       d="m 2891.4287,954.28571 c 0,100.98919 -99.7766,182.85719 -222.8572,182.85719 -123.0806,0 -222.8571,-81.868 -222.8571,-182.85719 0,-100.98922 99.7765,-182.85715 222.8571,-182.85715 123.0806,0 222.8572,81.86793 222.8572,182.85715 z"
       transform="matrix(1.3461538,0,0,1.640625,-1038.9959,-2539.5011)"
       class="grab" />
    <rect
       style="fill:#00ff00"
       id="rect3143"
       width="45.714287"
       height="322.48169"
       x="2236.6934"
       y="-719.60651"
       class="platform" />
    <rect
       style="fill:#00ff00"
       id="rect3145"
       width="733.86188"
       height="40"
       x="2260.3594"
       y="-433.29379"
       class="platform" />
    <rect
       style="fill:#00ff00"
       id="rect3147"
       width="43.343914"
       height="465.94708"
       x="955.15302"
       y="-1481.8762"
       class="platform" />
    <rect
       style="fill:#00ff00"
       id="rect3149"
       width="387.30652"
       height="37.925926"
       x="960.57111"
       y="-1056.564"
       class="platform" />
    <rect
       style="fill:#00ff00"
       id="rect3151"
       width="1500.7831"
       height="59.597885"
       x="3.8310971"
       y="-255.27916"
       class="platform" />
    <path
       sodipodi:type="arc"
       style="fill:#00ff00"
       id="path3155"
       sodipodi:cx="1909.8019"
       sodipodi:cy="1856.4175"
       sodipodi:rx="178.14601"
       sodipodi:ry="189.6393"
       d="m 2087.9479,1856.4175 c 0,104.7349 -79.7587,189.6393 -178.146,189.6393 -98.3873,0 -178.146,-84.9044 -178.146,-189.6393 0,-104.7349 79.7587,-189.6393 178.146,-189.6393 98.3873,0 178.146,84.9044 178.146,189.6393 z"
       transform="matrix(1.6840119,0,0,1.5819506,-1349.2104,-2968.3462)"
       class="grab" />
    <rect
       style="fill:#00ff00"
       id="rect3157"
       width="45.973164"
       height="835.49811"
       x="2390.6045"
       y="-16.832838"
       class="platform" />
    <rect
       style="fill:#00ff00"
       id="rect3159"
       width="1877.2375"
       height="45.973164"
       x="513.367"
       y="2344.8823"
       transform="translate(0,-1947.6378)"
       class="platform" />
    <rect
       style="fill:#00ff00"
       id="rect3161"
       width="1091.6943"
       height="64.458931"
       x="230.36676"
       y="597.12915"
       transform="matrix(0.9423818,0.33453929,-0.34962322,0.93689039,0,0)"
       class="platform" />
    <rect
       style="fill:#00ff00"
       id="rect3168"
       width="43.343914"
       height="379.25925"
       x="1029.418"
       y="-215.44737"
       class="platform" />
    <path
       sodipodi:type="arc"
       style="fill:#ff0000"
       id="path3263"
       sodipodi:cx="1171.6403"
       sodipodi:cy="857.18518"
       sodipodi:rx="39.280422"
       sodipodi:ry="29.798943"
       d="m 1210.9207,857.18518 c 0,16.4575 -17.5865,29.79894 -39.2804,29.79894 -21.694,0 -39.2805,-13.34144 -39.2805,-29.79894 0,-16.4575 17.5865,-29.79894 39.2805,-29.79894 21.6939,0 39.2804,13.34144 39.2804,29.79894 z"
       transform="translate(0,-1947.6378)"
       cooldown="3000"
       class="powerup"
       obj_id="12" />
    <path
       sodipodi:type="arc"
       style="fill:#ff0000"
       id="path3265"
       sodipodi:cx="2380"
       sodipodi:cy="1452"
       sodipodi:rx="44"
       sodipodi:ry="52"
       d="m 2424,1452 c 0,28.7188 -19.6995,52 -44,52 -24.3005,0 -44,-23.2812 -44,-52 0,-28.7188 19.6995,-52 44,-52 24.3005,0 44,23.2812 44,52 z"
       transform="translate(0,-1947.6378)"
       cooldown="5000"
       obj_id="13"
       class="powerup" />
    <path
       sodipodi:type="arc"
       style="fill:#ff0000"
       id="path3267"
       sodipodi:cx="144"
       sodipodi:cy="1624"
       sodipodi:rx="40"
       sodipodi:ry="40"
       d="m 184,1624 c 0,22.0914 -17.90861,40 -40,40 -22.09139,0 -40,-17.9086 -40,-40 0,-22.0914 17.90861,-40 40,-40 22.09139,0 40,17.9086 40,40 z"
       transform="translate(0,-1947.6378)"
       cooldown="11000"
       class="powerup"
       obj_id="11" />
    <path
       sodipodi:type="arc"
       style="fill:#ff0000"
       id="path3269"
       sodipodi:cx="1168"
       sodipodi:cy="1860"
       sodipodi:rx="56"
       sodipodi:ry="52"
       d="m 1224,1860 c 0,28.7188 -25.0721,52 -56,52 -30.9279,0 -56,-23.2812 -56,-52 0,-28.7188 25.0721,-52 56,-52 30.9279,0 56,23.2812 56,52 z"
       transform="translate(0,-1947.6378)"
       cooldown="10000"
       class="powerup"
       obj_id="11" />
    <path
       sodipodi:type="arc"
       style="fill:#ff0000"
       id="path3271"
       sodipodi:cx="2700"
       sodipodi:cy="2220"
       sodipodi:rx="116"
       sodipodi:ry="84"
       d="m 2816,2220 c 0,46.3919 -51.935,84 -116,84 -64.065,0 -116,-37.6081 -116,-84 0,-46.3919 51.935,-84 116,-84 64.065,0 116,37.6081 116,84 z"
       transform="translate(0,-1947.6378)"
       cooldown="5000"
       class="powerup"
       obj_id="12" />
    <rect
       style="fill:#ff0000"
       id="rect3321"
       width="120"
       height="184"
       x="256"
       y="104.00002"
       transform="translate(0,-1947.6378)"
       class="spawnpoint" />
    <rect
       style="fill:#ff0000"
       id="rect3323"
       width="104"
       height="104"
       x="456"
       y="8.0000172"
       transform="translate(0,-1947.6378)"
       class="spawnpoint" />
    <path
       sodipodi:type="arc"
       style="fill:#ffff00"
       id="path3002"
       sodipodi:cx="1692"
       sodipodi:cy="2740"
       sodipodi:rx="188"
       sodipodi:ry="164"
       d="m 1880,2740 a 188,164 0 1 1 -376,0 188,164 0 1 1 376,0 z"
       transform="matrix(0.79787234,0,0,0.91463415,376,-1619.7354)"
       class="banana" />
  </g>
</svg>
