<?xml version="1.0" encoding="UTF-8" standalone="no"?>
<!-- Created with Inkscape (http://www.inkscape.org/) -->

<svg
   xmlns:dc="http://purl.org/dc/elements/1.1/"
   xmlns:cc="http://creativecommons.org/ns#"
   xmlns:rdf="http://www.w3.org/1999/02/22-rdf-syntax-ns#"
   xmlns:svg="http://www.w3.org/2000/svg"
   xmlns="http://www.w3.org/2000/svg"
   xmlns:sodipodi="http://sodipodi.sourceforge.net/DTD/sodipodi-0.dtd"
   xmlns:inkscape="http://www.inkscape.org/namespaces/inkscape"
   width="4000"
   height="3000"
   id="svg3017"
   version="1.1"
   inkscape:version="0.48.0 r9654"
   sodipodi:docname="loopdeloop.svg">
  <defs
     id="defs3019" />
  <sodipodi:namedview
     id="base"
     pagecolor="#ffffff"
     bordercolor="#666666"
     borderopacity="1.0"
     inkscape:pageopacity="0.0"
     inkscape:pageshadow="2"
     inkscape:zoom="0.125"
     inkscape:cx="3278.5532"
     inkscape:cy="1385.0153"
     inkscape:document-units="px"
     inkscape:current-layer="layer1"
     showgrid="false"
     inkscape:window-width="1280"
     inkscape:window-height="752"
     inkscape:window-x="0"
     inkscape:window-y="0"
     inkscape:window-maximized="0" />
  <metadata
     id="metadata3022">
    <rdf:RDF>
      <cc:Work
         rdf:about="">
        <dc:format>image/svg+xml</dc:format>
        <dc:type
           rdf:resource="http://purl.org/dc/dcmitype/StillImage" />
        <dc:title />
      </cc:Work>
    </rdf:RDF>
  </metadata>
  <g
     inkscape:label="Layer 1"
     inkscape:groupmode="layer"
     id="layer1"
     transform="translate(0,1947.6378)">
    <rect
       style="fill:#00ff00"
       id="rect3050"
       width="517.19812"
       height="80.812202"
       x="864.69055"
       y="454.35184"
       class="platform" />
    <rect
       style="fill:#00ff00"
       id="rect3073"
       width="72.73098"
       height="1774.5182"
       x="1963.7366"
       y="-1093.8922"
       class="platform" />
    <rect
       style="fill:#00ff00"
       id="rect3085"
       width="379.81735"
       height="40"
       x="573.76666"
       y="-110.92745"
       class="platform" />
    <rect
       style="fill:#00ff00"
       id="rect3087"
       width="525.2793"
       height="80.812202"
       x="1438.4573"
       y="-457.20969"
       class="platform" />
    <rect
       style="fill:#00ff00"
       id="rect3089"
       width="1737.4623"
       height="64.649765"
       x="2270.823"
       y="-1169.9734"
       class="platform" />
    <rect
       style="fill:#00ff00"
       id="rect3091"
       width="589.92908"
       height="48.487324"
       x="1375.8278"
       y="-1092.2942"
       class="platform" />
    <rect
       style="fill:#00ff00"
       id="rect3093"
       width="880.85297"
       height="56.568542"
       x="-3.636523"
       y="-750.96204"
       class="platform" />
    <rect
       style="fill:#00ff00"
       id="rect3095"
       width="777.41339"
       height="80.812202"
       x="3222.7905"
       y="-75.776199"
       class="platform" />
    <rect
       style="fill:#00ff00"
       id="rect3106"
       width="72.7146"
       height="1329.6764"
       x="2381.72"
       y="-1705.9425"
       transform="matrix(0.99474597,-0.10237411,0.10672712,0.99428835,0,0)"
       class="platform" />
    <rect
       style="fill:#ff0000"
       id="rect2994"
       width="200"
       height="248"
       x="160"
       y="2736"
       transform="translate(0,-1947.6378)"
       class="spawnpoint" />
    <path
       sodipodi:type="arc"
       style="fill:#00ff00"
       id="path2995"
       sodipodi:cx="776"
       sodipodi:cy="2712"
       sodipodi:rx="384"
       sodipodi:ry="352"
       d="m 1160,2712 a 384,352 0 1 1 -768,0 384,352 0 1 1 768,0 z"
       transform="matrix(0.78125,0,0,0.85227273,997.75,-1855.0014)"
       class="grab" />
    <path
       sodipodi:type="arc"
       style="fill:#00ff00"
       id="path2997"
       sodipodi:cx="552"
       sodipodi:cy="2664"
       sodipodi:rx="432"
       sodipodi:ry="304"
       d="m 984,2664 a 432,304 0 1 1 -864,0 432,304 0 1 1 864,0 z"
       transform="matrix(0.69444444,0,0,0.98684211,12.666667,-2764.5852)"
       class="grab" />
    <path
       sodipodi:type="arc"
       style="fill:#00ff00"
       id="path2999"
       sodipodi:cx="2660"
       sodipodi:cy="3040"
       sodipodi:rx="524"
       sodipodi:ry="456"
       d="m 3184,3040 a 524,456 0 1 1 -1048,0 524,456 0 1 1 1048,0 z"
       transform="matrix(0.76335878,0,0,0.87719298,537.46565,-2614.3045)"
       class="grab" />
  </g>
</svg>
