<?xml version="1.0" encoding="UTF-8" standalone="no"?>
<!-- Created with Inkscape (http://www.inkscape.org/) -->

<svg
   xmlns:dc="http://purl.org/dc/elements/1.1/"
   xmlns:cc="http://creativecommons.org/ns#"
   xmlns:rdf="http://www.w3.org/1999/02/22-rdf-syntax-ns#"
   xmlns:svg="http://www.w3.org/2000/svg"
   xmlns="http://www.w3.org/2000/svg"
   xmlns:sodipodi="http://sodipodi.sourceforge.net/DTD/sodipodi-0.dtd"
   xmlns:inkscape="http://www.inkscape.org/namespaces/inkscape"
   width="4000"
   height="3000"
   id="svg3017"
   version="1.1"
   inkscape:version="0.48.0 r9654"
   sodipodi:docname="loopdeloop.svg">
  <defs
     id="defs3019" />
  <sodipodi:namedview
     id="base"
     pagecolor="#ffffff"
     bordercolor="#666666"
     borderopacity="1.0"
     inkscape:pageopacity="0.0"
     inkscape:pageshadow="2"
     inkscape:zoom="0.125"
     inkscape:cx="-561.44676"
     inkscape:cy="1065.0153"
     inkscape:document-units="px"
     inkscape:current-layer="layer1"
     showgrid="false"
     inkscape:window-width="1280"
     inkscape:window-height="752"
     inkscape:window-x="0"
     inkscape:window-y="0"
     inkscape:window-maximized="1" />
  <metadata
     id="metadata3022">
    <rdf:RDF>
      <cc:Work
         rdf:about="">
        <dc:format>image/svg+xml</dc:format>
        <dc:type
           rdf:resource="http://purl.org/dc/dcmitype/StillImage" />
        <dc:title />
      </cc:Work>
    </rdf:RDF>
  </metadata>
  <g
     inkscape:label="Layer 1"
     inkscape:groupmode="layer"
     id="layer1"
     transform="translate(0,1947.6378)">
    <rect
       style="fill:#00ff00"
       id="rect3050"
       width="517.19812"
       height="80.812202"
       x="864.69055"
       y="454.35184"
       class="platform" />
    <path
       sodipodi:type="arc"
       style="fill:#00ff00"
       id="path3052"
       sodipodi:cx="1131.3708"
       sodipodi:cy="2393.9084"
       sodipodi:rx="355.5737"
       sodipodi:ry="169.70563"
       d="m 1486.9445,2393.9084 c 0,93.7259 -159.1957,169.7057 -355.5737,169.7057 -196.37788,0 -355.57365,-75.9798 -355.57365,-169.7057 0,-93.7258 159.19577,-169.7056 355.57365,-169.7056 196.378,0 355.5737,75.9798 355.5737,169.7056 z"
       transform="matrix(0.84370694,0,0,1.767767,646.53109,-3778.5154)"
       class="grab" />
    <rect
       style="fill:#00ff00"
       id="rect3073"
       width="72.73098"
       height="1774.5182"
       x="1963.7366"
       y="-1093.8922"
       class="platform" />
    <path
       sodipodi:type="arc"
       style="fill:#00ff00"
       id="path3083"
       sodipodi:cx="375.77673"
       sodipodi:cy="2042.3754"
       sodipodi:rx="278.80209"
       sodipodi:ry="262.63965"
       d="m 654.57883,2042.3754 c 0,145.0518 -124.82395,262.6396 -278.8021,262.6396 -153.97814,0 -278.80209,-117.5878 -278.80209,-262.6396 0,-145.0519 124.82395,-262.6397 278.80209,-262.6397 153.97815,0 278.8021,117.5878 278.8021,262.6397 z"
       transform="matrix(1.0771153,0,0,1.1427806,-7.4782283,-2470.6985)"
       class="grab" />
    <rect
       style="fill:#00ff00"
       id="rect3085"
       width="379.81735"
       height="40"
       x="573.76666"
       y="-110.92745"
       class="platform" />
    <rect
       style="fill:#00ff00"
       id="rect3087"
       width="525.2793"
       height="80.812202"
       x="1438.4573"
       y="-457.20969"
       class="platform" />
    <rect
       style="fill:#00ff00"
       id="rect3089"
       width="1737.4623"
       height="64.649765"
       x="2270.823"
       y="-1169.9734"
       class="platform" />
    <rect
       style="fill:#00ff00"
       id="rect3091"
       width="589.92908"
       height="48.487324"
       x="1375.8278"
       y="-1092.2942"
       class="platform" />
    <rect
       style="fill:#00ff00"
       id="rect3093"
       width="880.85297"
       height="56.568542"
       x="-3.636523"
       y="-750.96204"
       class="platform" />
    <rect
       style="fill:#00ff00"
       id="rect3095"
       width="777.41339"
       height="80.812202"
       x="3222.7905"
       y="-75.776199"
       class="platform" />
    <path
       sodipodi:type="arc"
       style="fill:#00ff00"
       id="path3097"
       sodipodi:cx="2614.2749"
       sodipodi:cy="2058.5378"
       sodipodi:rx="262.63965"
       sodipodi:ry="246.47722"
       d="m 2876.9146,2058.5378 c 0,136.1257 -117.5878,246.4773 -262.6397,246.4773 -145.0519,0 -262.6396,-110.3516 -262.6396,-246.4773 0,-136.1256 117.5877,-246.4772 262.6396,-246.4772 145.0519,0 262.6397,110.3516 262.6397,246.4772 z"
       transform="matrix(1.1422495,0,0,1.217151,-399.16865,-2375.4432)"
       class="grab" />
    <rect
       style="fill:#00ff00"
       id="rect3106"
       width="72.7146"
       height="1329.6764"
       x="2381.72"
       y="-1705.9425"
       transform="matrix(0.99474597,-0.10237411,0.10672712,0.99428835,0,0)"
       class="platform" />
    <rect
       style="fill:#ff0000"
       id="rect2994"
       width="200"
       height="248"
       x="160"
       y="2736"
       transform="translate(0,-1947.6378)"
       class="spawnpoint" />
  </g>
</svg>
