<?xml version="1.0" encoding="UTF-8" standalone="no"?>
<!-- Created with Inkscape (http://www.inkscape.org/) -->

<svg
   xmlns:dc="http://purl.org/dc/elements/1.1/"
   xmlns:cc="http://creativecommons.org/ns#"
   xmlns:rdf="http://www.w3.org/1999/02/22-rdf-syntax-ns#"
   xmlns:svg="http://www.w3.org/2000/svg"
   xmlns="http://www.w3.org/2000/svg"
   xmlns:sodipodi="http://sodipodi.sourceforge.net/DTD/sodipodi-0.dtd"
   xmlns:inkscape="http://www.inkscape.org/namespaces/inkscape"
   width="4000"
   height="3000"
   id="svg3170"
   version="1.1"
   inkscape:version="0.48.0 r9654"
   sodipodi:docname="throw.svg">
  <defs
     id="defs3172" />
  <sodipodi:namedview
     id="base"
     pagecolor="#ffffff"
     bordercolor="#666666"
     borderopacity="1.0"
     inkscape:pageopacity="0.0"
     inkscape:pageshadow="2"
     inkscape:zoom="0.175"
     inkscape:cx="2438.671"
     inkscape:cy="1509.3175"
     inkscape:document-units="px"
     inkscape:current-layer="layer1"
     showgrid="false"
     inkscape:window-width="1280"
     inkscape:window-height="752"
     inkscape:window-x="0"
     inkscape:window-y="0"
     inkscape:window-maximized="0" />
  <metadata
     id="metadata3175">
    <rdf:RDF>
      <cc:Work
         rdf:about="">
        <dc:format>image/svg+xml</dc:format>
        <dc:type
           rdf:resource="http://purl.org/dc/dcmitype/StillImage" />
        <dc:title />
      </cc:Work>
    </rdf:RDF>
  </metadata>
  <g
     inkscape:label="Layer 1"
     inkscape:groupmode="layer"
     id="layer1"
     transform="translate(0,1947.6378)">
    <rect
       style="fill:#00ff00"
       id="rect3178"
       width="1074.2858"
       height="40"
       x="1034.2858"
       y="698.0766"
       class="platform" />
    <rect
       style="fill:#00ff00"
       id="rect3180"
       width="771.42859"
       height="51.42857"
       x="2634.2856"
       y="2405.7144"
       transform="translate(0,-1947.6378)"
       class="platform" />
    <rect
       style="fill:#00ff00"
       id="rect3182"
       width="925.71429"
       height="57.142857"
       x="2457.1428"
       y="-61.923515"
       class="platform" />
    <rect
       style="fill:#00ff00"
       id="rect3184"
       width="840"
       height="40"
       x="542.85712"
       y="-124.78065"
       class="platform" />
    <rect
       style="fill:#00ff00"
       id="rect3186"
       width="811.42859"
       height="51.42857"
       x="554.28571"
       y="-673.35205"
       class="platform" />
    <rect
       style="fill:#00ff00"
       id="rect3188"
       width="845.71429"
       height="40"
       x="2422.8572"
       y="-684.78064"
       class="platform" />
    <rect
       style="fill:#00ff00"
       id="rect3190"
       width="942.85712"
       height="57.142857"
       x="2491.4287"
       y="-1284.7806"
       class="platform" />
    <rect
       style="fill:#00ff00"
       id="rect3192"
       width="971.42853"
       height="45.714287"
       x="-11.428572"
       y="-1439.0664"
       class="platform" />
    <rect
       style="fill:#00ff00"
       id="rect3243"
       width="314.28574"
       height="45.714287"
       x="1708.5714"
       y="29.50502" />
    <rect
       style="fill:#ff0000"
       id="rect3247"
       width="100"
       height="100"
       x="0"
       y="-1947.6378" />
    <path
       sodipodi:type="arc"
       style="fill:#ff0000"
       id="path3249"
       sodipodi:cx="545.71429"
       sodipodi:cy="2862.8572"
       sodipodi:rx="37.142857"
       sodipodi:ry="40"
       d="m 582.85715,2862.8572 c 0,22.0914 -16.62942,40 -37.14286,40 -20.51343,0 -37.14285,-17.9086 -37.14285,-40 0,-22.0914 16.62942,-40 37.14285,-40 20.51344,0 37.14286,17.9086 37.14286,40 z"
       transform="translate(0,-1947.6378)"
       cooldown="5000"
       class="powerup"
       obj_id="11" />
    <path
       sodipodi:type="arc"
       style="fill:#ff0000"
       id="path3251"
       sodipodi:cx="1877.1428"
       sodipodi:cy="2842.8572"
       sodipodi:rx="37.142857"
       sodipodi:ry="31.428572"
       d="m 1914.2857,2842.8572 c 0,17.3575 -16.6294,31.4285 -37.1429,31.4285 -20.5134,0 -37.1428,-14.071 -37.1428,-31.4285 0,-17.3575 16.6294,-31.4286 37.1428,-31.4286 20.5135,0 37.1429,14.0711 37.1429,31.4286 z"
       transform="translate(0,-1947.6378)"
       cooldown="5000"
       class="powerup"
       obj_id="12" />
    <path
       sodipodi:type="arc"
       style="fill:#ff0000"
       id="path3253"
       sodipodi:cx="2822.8572"
       sodipodi:cy="2842.8572"
       sodipodi:rx="17.142857"
       sodipodi:ry="20"
       d="m 2840,2842.8572 c 0,11.0457 -7.6751,20 -17.1428,20 -9.4678,0 -17.1429,-8.9543 -17.1429,-20 0,-11.0457 7.6751,-20 17.1429,-20 9.4677,0 17.1428,8.9543 17.1428,20 z"
       transform="translate(0,-1947.6378)"
       cooldown="5000"
       obj_id="12"
       class="powerup" />
    <path
       sodipodi:type="arc"
       style="fill:#ff0000"
       id="path3255"
       sodipodi:cx="2728.5715"
       sodipodi:cy="1802.8572"
       sodipodi:rx="37.142857"
       sodipodi:ry="42.857143"
       d="m 2765.7144,1802.8572 c 0,23.6693 -16.6294,42.8571 -37.1429,42.8571 -20.5134,0 -37.1428,-19.1878 -37.1428,-42.8571 0,-23.6694 16.6294,-42.8572 37.1428,-42.8572 20.5135,0 37.1429,19.1878 37.1429,42.8572 z"
       transform="translate(0,-1947.6378)"
       cooldown="2000"
       class="powerup"
       obj_id="13" />
    <path
       sodipodi:type="arc"
       style="fill:#ff0000"
       id="path3257"
       sodipodi:cx="985.71429"
       sodipodi:cy="1762.8572"
       sodipodi:rx="60"
       sodipodi:ry="37.142857"
       d="m 1045.7143,1762.8572 c 0,20.5134 -26.8629,37.1428 -60.00001,37.1428 -33.13708,0 -60,-16.6294 -60,-37.1428 0,-20.5135 26.86292,-37.1429 60,-37.1429 33.13711,0 60.00001,16.6294 60.00001,37.1429 z"
       transform="translate(0,-1947.6378)"
       cooldown="2000"
       class="powerup"
       obj_id="13" />
    <path
       sodipodi:type="arc"
       style="fill:#ff0000"
       id="path3259"
       sodipodi:cx="1017.1429"
       sodipodi:cy="1197.1428"
       sodipodi:rx="57.142857"
       sodipodi:ry="37.142857"
       d="m 1074.2857,1197.1428 c 0,20.5135 -25.5837,37.1429 -57.1428,37.1429 -31.55914,0 -57.14287,-16.6294 -57.14287,-37.1429 0,-20.5134 25.58373,-37.1428 57.14287,-37.1428 31.5591,0 57.1428,16.6294 57.1428,37.1428 z"
       transform="translate(0,-1947.6378)"
       cooldown="10000"
       obj_id="11"
       class="powerup" />
    <path
       sodipodi:type="arc"
       style="fill:#ff0000"
       id="path3261"
       sodipodi:cx="2737.1428"
       sodipodi:cy="1222.8572"
       sodipodi:rx="40"
       sodipodi:ry="45.714287"
       d="m 2777.1428,1222.8572 c 0,25.2473 -17.9086,45.7143 -40,45.7143 -22.0914,0 -40,-20.467 -40,-45.7143 0,-25.2473 17.9086,-45.7143 40,-45.7143 22.0914,0 40,20.467 40,45.7143 z"
       transform="translate(0,-1947.6378)"
       cooldown="10000"
       obj_id="11"
       class="powerup" />
    <path
       sodipodi:type="arc"
       style="fill:#00ff00"
       id="path3004"
       sodipodi:cx="2351.4285"
       sodipodi:cy="2345.7144"
       sodipodi:rx="174.28572"
       sodipodi:ry="225.71428"
       d="m 2525.7142,2345.7144 c 0,124.6585 -78.0304,225.7142 -174.2857,225.7142 -96.2554,0 -174.2858,-101.0557 -174.2858,-225.7142 0,-124.6586 78.0304,-225.7143 174.2858,-225.7143 96.2553,0 174.2857,101.0557 174.2857,225.7143 z"
       transform="matrix(1.7213114,0,0,1.329114,-3667.5408,-3788.2166)" />
    <path
       transform="matrix(1.7213114,0,0,1.329114,-3667.5408,-3788.2166)"
       d="m 2525.7142,2345.7144 c 0,124.6585 -78.0304,225.7142 -174.2857,225.7142 -96.2554,0 -174.2858,-101.0557 -174.2858,-225.7142 0,-124.6586 78.0304,-225.7143 174.2858,-225.7143 96.2553,0 174.2857,101.0557 174.2857,225.7143 z"
       sodipodi:ry="225.71428"
       sodipodi:rx="174.28572"
       sodipodi:cy="2345.7144"
       sodipodi:cx="2351.4285"
       id="path3028"
       style="fill:#00ff00"
       sodipodi:type="arc"
       class="grab" />
    <path
       sodipodi:type="arc"
       style="fill:#00ff00"
       id="path3052"
       sodipodi:cx="2257.1428"
       sodipodi:cy="2528.5715"
       sodipodi:rx="274.28571"
       sodipodi:ry="214.28572"
       d="m 2531.4285,2528.5715 c 0,118.3468 -122.8019,214.2858 -274.2857,214.2858 -151.4838,0 -274.2857,-95.939 -274.2857,-214.2858 0,-118.3467 122.8019,-214.2857 274.2857,-214.2857 151.4838,0 274.2857,95.939 274.2857,214.2857 z"
       transform="matrix(1.09375,0,0,1.4,1111.2499,-3581.9235)"
       class="grab" />
    <path
       sodipodi:type="arc"
       style="fill:#00ff00"
       id="path3054"
       sodipodi:cx="3611.4285"
       sodipodi:cy="722.85712"
       sodipodi:rx="217.14285"
       sodipodi:ry="191.42857"
       d="m 3828.5713,722.85712 c 0,105.72308 -97.2181,191.42857 -217.1428,191.42857 -119.9247,0 -217.1429,-85.70549 -217.1429,-191.42857 0,-105.72309 97.2182,-191.42858 217.1429,-191.42858 119.9247,0 217.1428,85.70549 217.1428,191.42858 z"
       transform="matrix(1.381579,0,0,1.5671642,-1323.7594,-2409.045)"
       class="grab" />
    <path
       sodipodi:type="arc"
       style="fill:#00ff00"
       id="path3056"
       sodipodi:cx="1237.1428"
       sodipodi:cy="342.85715"
       sodipodi:rx="237.14285"
       sodipodi:ry="137.14285"
       d="M 1474.2857,342.85715 C 1474.2857,418.59905 1368.1132,480 1237.1428,480 1106.1724,480 999.99997,418.59905 999.99997,342.85715 c 0,-75.74191 106.17243,-137.14286 237.14283,-137.14286 130.9704,0 237.1429,61.40095 237.1429,137.14286 z"
       transform="matrix(1.2650603,0,0,2.1875001,-333.63169,-2386.2092)"
       class="grab" />
    <rect
       style="fill:#ff0000"
       id="rect3058"
       width="194.28572"
       height="251.42857"
       x="108.57143"
       y="2742.8572"
       transform="translate(0,-1947.6378)"
       class="spawnpoint" />
    <rect
       style="fill:#ff0000"
       id="rect3060"
       width="182.85715"
       height="234.28572"
       x="2314.2856"
       y="2760"
       transform="translate(0,-1947.6378)"
       class="spawnpoint" />
    <path
       sodipodi:type="arc"
       style="fill:#ffff00"
       id="path3006"
       sodipodi:cx="431.42856"
       sodipodi:cy="345.71429"
       sodipodi:rx="134.28572"
       sodipodi:ry="100"
       d="m 565.71428,345.71429 a 134.28572,100 0 1 1 -268.57144,0 134.28572,100 0 1 1 268.57144,0 z"
       transform="matrix(1.1170212,0,0,1.5,-29.057732,-2141.9235)"
       class="banana" />
  </g>
</svg>
