<?xml version="1.0" encoding="UTF-8" standalone="no"?>
<!-- Created with Inkscape (http://www.inkscape.org/) -->

<svg
   xmlns:dc="http://purl.org/dc/elements/1.1/"
   xmlns:cc="http://creativecommons.org/ns#"
   xmlns:rdf="http://www.w3.org/1999/02/22-rdf-syntax-ns#"
   xmlns:svg="http://www.w3.org/2000/svg"
   xmlns="http://www.w3.org/2000/svg"
   xmlns:sodipodi="http://sodipodi.sourceforge.net/DTD/sodipodi-0.dtd"
   xmlns:inkscape="http://www.inkscape.org/namespaces/inkscape"
   width="4000"
   height="3000"
   id="svg3170"
   version="1.1"
   inkscape:version="0.48.0 r9654"
   sodipodi:docname="throw.svg">
  <defs
     id="defs3172" />
  <sodipodi:namedview
     id="base"
     pagecolor="#ffffff"
     bordercolor="#666666"
     borderopacity="1.0"
     inkscape:pageopacity="0.0"
     inkscape:pageshadow="2"
     inkscape:zoom="0.175"
     inkscape:cx="2438.671"
     inkscape:cy="1509.3175"
     inkscape:document-units="px"
     inkscape:current-layer="layer1"
     showgrid="false"
     inkscape:window-width="1280"
     inkscape:window-height="752"
     inkscape:window-x="0"
     inkscape:window-y="0"
     inkscape:window-maximized="0" />
  <metadata
     id="metadata3175">
    <rdf:RDF>
      <cc:Work
         rdf:about="">
        <dc:format>image/svg+xml</dc:format>
        <dc:type
           rdf:resource="http://purl.org/dc/dcmitype/StillImage" />
        <dc:title></dc:title>
      </cc:Work>
    </rdf:RDF>
  </metadata>
  <g
     inkscape:label="Layer 1"
     inkscape:groupmode="layer"
     id="layer1"
     transform="translate(0,1947.6378)">
    <rect
       style="fill:#00ff00"
       id="rect3178"
       width="1074.2858"
       height="40"
       x="1034.2858"
       y="698.0766"
       class="platform" />
    <rect
       style="fill:#00ff00"
       id="rect3180"
       width="771.42859"
       height="51.42857"
       x="2634.2856"
       y="2405.7144"
       transform="translate(0,-1947.6378)"
       class="platform" />
    <rect
       style="fill:#00ff00"
       id="rect3182"
       width="925.71429"
       height="57.142857"
       x="2457.1428"
       y="-61.923515"
       class="platform" />
    <rect
       style="fill:#00ff00"
       id="rect3184"
       width="840"
       height="40"
       x="542.85712"
       y="-124.78065"
       class="platform" />
    <rect
       style="fill:#00ff00"
       id="rect3186"
       width="811.42859"
       height="51.42857"
       x="554.28571"
       y="-673.35205"
       class="platform" />
    <rect
       style="fill:#00ff00"
       id="rect3188"
       width="845.71429"
       height="40"
       x="2422.8572"
       y="-684.78064"
       class="platform" />
    <rect
       style="fill:#00ff00"
       id="rect3190"
       width="942.85712"
       height="57.142857"
       x="2491.4287"
       y="-1284.7806"
       class="platform" />
    <rect
       style="fill:#00ff00"
       id="rect3192"
       width="971.42853"
       height="45.714287"
       x="-11.428572"
       y="-1439.0664"
       class="platform" />
    <path
       sodipodi:type="arc"
       style="fill:#000000"
       id="path3194"
       sodipodi:cx="3662.8572"
       sodipodi:cy="2108.5715"
       sodipodi:rx="228.57143"
       sodipodi:ry="217.14285"
       d="m 3891.4286,2108.5715 a 228.57143,217.14285 0 1 1 -457.1428,0 228.57143,217.14285 0 1 1 457.1428,0 z"
       transform="matrix(1.3125,0,0,1.381579,-1244.6429,-2955.1195)"
       class="grab" />
    <path
       sodipodi:type="arc"
       style="fill:#000000"
       id="path3196"
       sodipodi:cx="408.57144"
       sodipodi:cy="1368.5714"
       sodipodi:rx="254.28572"
       sodipodi:ry="265.71429"
       d="m 662.85716,1368.5714 a 254.28572,265.71429 0 1 1 -508.57144,0 254.28572,265.71429 0 1 1 508.57144,0 z"
       transform="matrix(1.1797753,0,0,1.1290322,-96.308183,-2215.6561)"
       class="grab" />
    <path
       sodipodi:type="arc"
       style="fill:#000000"
       id="path3198"
       sodipodi:cx="3668.5715"
       sodipodi:cy="891.42859"
       sodipodi:rx="228.57143"
       sodipodi:ry="285.71429"
       d="m 3897.143,891.42859 a 228.57143,285.71429 0 1 1 -457.1429,0 228.57143,285.71429 0 1 1 457.1429,0 z"
       transform="matrix(1.3125,0,0,1.05,-1200.7144,-2183.6378)"
       class="grab" />
    <path
       sodipodi:type="arc"
       style="fill:#000000"
       id="path3200"
       sodipodi:cx="2142.8572"
       sodipodi:cy="1225.7142"
       sodipodi:rx="240"
       sodipodi:ry="208.57143"
       d="m 2382.8572,1225.7142 a 240,208.57143 0 1 1 -480,0 240,208.57143 0 1 1 480,0 z"
       transform="matrix(1.25,0,0,1.4383562,-1430.0001,-3353.5086)"
       class="grab" />
    <path
       sodipodi:type="arc"
       style="fill:#000000"
       id="path3202"
       sodipodi:cx="1837.1428"
       sodipodi:cy="1862.8572"
       sodipodi:rx="322.85715"
       sodipodi:ry="320"
       d="m 2160,1862.8572 a 322.85715,320 0 1 1 -645.7143,0 322.85715,320 0 1 1 645.7143,0 z"
       transform="translate(348.57143,-2890.4949)"
       class="grab" />
    <rect
       style="fill:#00ff00"
       id="rect3243"
       width="314.28574"
       height="45.714287"
       x="1708.5714"
       y="29.50502" />
    <rect
       style="fill:#ff0000"
       id="rect3247"
       width="100"
       height="100"
       x="0"
       y="-1947.6378" />
    <path
       sodipodi:type="arc"
       style="fill:#ff0000"
       id="path3249"
       sodipodi:cx="545.71429"
       sodipodi:cy="2862.8572"
       sodipodi:rx="37.142857"
       sodipodi:ry="40"
       d="m 582.85715,2862.8572 a 37.142857,40 0 1 1 -74.28571,0 37.142857,40 0 1 1 74.28571,0 z"
       transform="translate(0,-1947.6378)"
       objectid="11"
       cooldown="5000" />
    <path
       sodipodi:type="arc"
       style="fill:#ff0000"
       id="path3251"
       sodipodi:cx="1877.1428"
       sodipodi:cy="2842.8572"
       sodipodi:rx="37.142857"
       sodipodi:ry="31.428572"
       d="m 1914.2857,2842.8572 a 37.142857,31.428572 0 1 1 -74.2857,0 37.142857,31.428572 0 1 1 74.2857,0 z"
       transform="translate(0,-1947.6378)"
       objectid="12"
       cooldown="5000" />
    <path
       sodipodi:type="arc"
       style="fill:#ff0000"
       id="path3253"
       sodipodi:cx="2822.8572"
       sodipodi:cy="2842.8572"
       sodipodi:rx="17.142857"
       sodipodi:ry="20"
       d="m 2840,2842.8572 a 17.142857,20 0 1 1 -34.2857,0 17.142857,20 0 1 1 34.2857,0 z"
       transform="translate(0,-1947.6378)"
       objectid="12"
       cooldown="5000" />
    <path
       sodipodi:type="arc"
       style="fill:#ff0000"
       id="path3255"
       sodipodi:cx="2728.5715"
       sodipodi:cy="1802.8572"
       sodipodi:rx="37.142857"
       sodipodi:ry="42.857143"
       d="m 2765.7144,1802.8572 a 37.142857,42.857143 0 1 1 -74.2857,0 37.142857,42.857143 0 1 1 74.2857,0 z"
       transform="translate(0,-1947.6378)"
       objectid="13"
       cooldown="2000" />
    <path
       sodipodi:type="arc"
       style="fill:#ff0000"
       id="path3257"
       sodipodi:cx="985.71429"
       sodipodi:cy="1762.8572"
       sodipodi:rx="60"
       sodipodi:ry="37.142857"
       d="m 1045.7143,1762.8572 a 60,37.142857 0 1 1 -120.00001,0 60,37.142857 0 1 1 120.00001,0 z"
       transform="translate(0,-1947.6378)"
       objectid="13"
       cooldown="2000" />
    <path
       sodipodi:type="arc"
       style="fill:#ff0000"
       id="path3259"
       sodipodi:cx="1017.1429"
       sodipodi:cy="1197.1428"
       sodipodi:rx="57.142857"
       sodipodi:ry="37.142857"
       d="m 1074.2857,1197.1428 a 57.142857,37.142857 0 1 1 -114.28567,0 57.142857,37.142857 0 1 1 114.28567,0 z"
       transform="translate(0,-1947.6378)"
       objectid="11"
       cooldown="10000" />
    <path
       sodipodi:type="arc"
       style="fill:#ff0000"
       id="path3261"
       sodipodi:cx="2737.1428"
       sodipodi:cy="1222.8572"
       sodipodi:rx="40"
       sodipodi:ry="45.714287"
       d="m 2777.1428,1222.8572 a 40,45.714287 0 1 1 -80,0 40,45.714287 0 1 1 80,0 z"
       transform="translate(0,-1947.6378)"
       objectid="11"
       cooldown="10000" />
  </g>
</svg>
